<svg width="480" height="120" viewBox="0 0 480 120" fill="none" xmlns="http://www.w3.org/2000/svg">
    <path d="M60.8266 5.7184C64.4892 5.36972 68.1839 5.62097 71.7656 6.46226C89.1494 10.4875 100.435 30.6394 94.2173 47.4288C93.7369 48.7266 93.1823 50.1959 92.8694 51.5374C93.7992 50.8751 94.1655 50.6855 95.2929 51.1291C99.0288 52.5987 102.379 54.7486 106.003 56.4581C109.241 57.9855 112.48 59.5556 115.627 61.2469C115.961 61.4264 116.376 62.3067 116.539 62.6613C115.389 63.3035 113.722 64.0179 112.481 64.553C95.8521 71.7279 78.9752 80.2936 62.3299 87.2152C59.8094 86.2795 53.3482 82.5921 50.692 81.1273L36.1842 73.2652C27.8873 68.6611 19.273 64.4468 10.9927 59.7879C10.009 59.2343 8.08612 58.4784 8.46812 57.2602C9.25666 56.5223 30.473 47.3759 31.7494 47.2172C32.7991 47.8678 33.1394 49.7609 33.4554 50.9534C30.7324 52.4145 27.0944 53.6287 24.0548 55.1522C22.9576 55.6034 18.1056 57.3652 17.7816 58.4447C18.1973 58.7939 18.3937 58.8314 18.8442 59.0651C29.179 64.417 39.3841 70.0327 49.6741 75.476C53.7609 77.6377 58.2532 80.5641 62.5167 82.2698C64.0772 81.7275 71.9934 78.2318 73.2497 77.5102C77.0934 75.3021 105.666 63.552 106.722 61.8541C106.105 60.4134 94.2647 56.5406 91.5354 53.4637C90.498 55.1998 89.723 56.4155 88.4241 57.9703C82.9486 64.6369 75.007 68.802 66.4097 69.5161C58.2879 70.2401 49.5923 67.6127 43.2846 62.3855C21.5886 44.4056 31.9137 8.15501 60.8266 5.7184ZM35.0215 34.9732C40.4944 34.5802 40.4229 34.9301 44.902 38.6489C45.6867 39.3005 46.0537 39.7624 46.6486 40.6439C44.9834 46.1039 46.0474 46.995 49.1398 51.3225C51.3012 54.3473 49.9097 58.8949 49.6066 62.3737C50.5976 62.8036 52.77 63.6907 53.6006 64.2094C55.3955 63.0825 58.0896 60.0253 59.1741 58.2323C59.6573 57.1744 60.2526 55.9542 60.6309 54.8707C63.3534 53.1548 64.3636 52.173 65.5005 49.0786C67.3369 44.0803 63.5344 45.1132 60.6021 43.7428C59.8657 43.3927 59.4876 42.0204 58.9401 41.4204C57.1097 40.151 53.078 38.0304 51.0471 37.6439C47.3112 38.6276 45.8564 39.2138 44.5467 34.8928C43.0127 34.132 40.4154 33.8309 39.9211 32.7586C39.6361 30.888 41.6151 28.9896 43.3528 28.6772C44.1504 28.5338 45.1484 29.0782 45.8332 29.4584C46.1262 27.7397 49.0366 22.031 50.0559 20.985C52.676 19.8384 52.7013 23.6693 55.0169 17.7578C55.1885 17.3197 55.3284 16.8698 55.4353 16.4116C54.7334 15.0048 53.1698 12.5385 52.7475 11.4211L52.5134 11.291C48.6741 12.8596 46.5248 14.4776 43.4578 17.3144C38.2127 22.1659 36.6712 28.2659 35.0215 34.9732ZM75.0994 11.3027C74.842 12.6224 74.1673 14.5991 75.8133 15.0529C76.7189 14.802 77.7122 14.36 78.4955 14.6288C78.8095 15.3452 78.8137 15.0793 78.5901 15.7482C77.7809 16.3731 76.2082 16.7871 76.2905 17.6074C76.5893 20.5886 74.0093 20.1968 73.087 22.004C72.9054 24.6912 75.3265 24.2285 76.9687 23.8643C78.8887 22.0214 79.3697 21.8166 81.9148 20.9851C84.3937 21.5449 87.7237 22.8352 87.4125 25.9605C86.9533 26.7595 87.2102 26.5207 86.3742 26.9184C84.2154 26.9208 83.2819 25.4885 82.0781 23.9363C80.5929 24.1751 79.8682 24.5121 78.5055 25.0336C70.9305 27.9323 68.7119 33.0506 73.0664 40.1433L74.959 41.3198C76.6001 41.1277 77.5969 41.0494 79.1719 40.5286L79.2459 40.5089C82.7571 39.6021 84.1263 43.4637 84.8951 46.0957C85.7869 49.1494 83.9789 52.7475 84.8784 55.6877L85.3284 55.9228C86.1478 55.65 88.5384 51.6384 89.1227 50.584C96.435 37.3873 90.4277 18.888 76.9591 12.1781C76.3451 11.8742 75.7249 11.5823 75.0994 11.3027Z" fill="#FEFEFE"/>
    <path d="M360.991 14.3857C361.099 14.3794 361.207 14.3772 361.315 14.3791C363.895 14.4299 365.951 15.6533 367.678 17.4742C368.51 16.9082 369.724 16.0946 370.622 15.642C373.165 14.3813 376.505 13.9026 379.216 15.0204C385.219 17.4935 386.22 22.6152 386.126 28.2809C385.971 37.8609 386.077 47.0946 386.208 56.6496C386.217 57.4066 386.121 58.1595 385.877 58.8673C384.607 60.5796 381.553 59.8493 380.027 58.8942C380.1 52.1034 380.13 45.3124 380.121 38.5214C380.126 33.6417 380.236 28.2068 379.901 23.3803C377.604 20.2297 376.088 19.9547 372.52 21.3737C372.047 21.929 371.498 22.7579 371.065 23.375C371.009 24.0914 370.99 24.8709 370.976 25.5912C370.812 34.2994 371.1 43.0338 370.943 51.7383C370.952 53.8957 371.273 56.505 370.683 58.5635C370.155 60.4041 366.778 59.9147 365.47 59.3323C365.365 59.2174 365.116 59.0116 365.058 58.8811C364.076 56.7157 365.674 29.2751 364.624 23.251C364.038 22.3698 363.34 21.7058 362.604 20.956C361.655 20.7051 360.448 20.623 359.454 20.5241C357.134 21.5092 355.987 22.2248 355.952 24.9684C355.849 33.5119 356.004 42.0654 355.966 50.6081C355.945 55.8049 357.757 61.883 350.112 59.3754C349.528 58.1023 349.793 44.5781 349.791 42.161L349.779 30.3495C349.777 25.8579 349.277 21.7916 352.406 18.0894C354.893 15.1453 357.382 14.7106 360.991 14.3857Z" fill="#FEFEFE"/>
    <path d="M141.134 15.0463C143.318 14.7762 145.961 14.8377 147.928 15.8857C151.567 17.8252 153.9 21.9283 153.958 26.0313C154.045 32.1738 153.87 38.332 153.993 44.4795C154.029 46.3069 154.083 48.5126 153.878 50.3128C153.702 51.8555 153.244 53.3529 152.527 54.7301C150.968 57.7277 148.185 59.1621 145.141 60.135C143.059 60.4704 141.03 60.2466 139.104 59.3651C136.334 58.0966 134.272 55.804 133.224 52.9488C132.205 50.1729 132.401 27.7725 132.854 23.91C132.955 23.0488 133.244 22.2439 133.61 21.4612C135.213 18.0264 137.666 16.3218 141.134 15.0463ZM143.307 54.1437C144.627 53.928 145.481 53.4075 146.652 52.7951C149.068 48.248 147.705 30.1472 147.492 24.2522C147.479 23.8807 146.604 22.551 146.32 22.1885C145.343 21.6465 144.699 21.3518 143.568 21.2106C142.034 21.3128 140.813 21.5051 139.735 22.7191C138.48 24.1331 138.651 27.0211 138.621 28.883C138.505 35.9334 138.465 43.0345 138.744 50.0815C138.845 52.5199 141.163 53.8214 143.307 54.1437Z" fill="#FEFEFE"/>
    <path d="M288.984 60.1659C288.548 59.0852 288.298 58.151 288.305 56.9728C288.382 44.3663 288.375 31.8159 288.37 19.2057C288.37 15.4595 289.793 15.1158 293.325 14.9155C297.396 14.9729 301.038 14.2155 304.608 16.6723C311.088 21.1316 310.767 31.6158 306.635 37.6662C308.909 40.5445 309.588 44.2212 309.469 47.8364C309.377 50.5545 310.181 58.0102 308.705 59.9325C307.519 60.728 305.524 60.3148 304.106 60.1582C302.374 56.6876 303.762 49.6943 303.45 45.6513C303.023 40.1098 299.084 40.5973 294.712 40.788C293.257 43.8255 295.024 56.5784 294.033 59.4966C292.875 60.9647 290.648 60.3558 288.984 60.1659ZM302.039 22.055C299.295 20.8222 297.778 21.0563 294.792 21.1509C294.141 22.3402 293.838 33.5651 294.443 34.3467L294.881 34.422C296.831 34.5984 299.85 34.8504 301.491 33.7369C304.385 31.7737 303.748 24.5749 302.039 22.055Z" fill="#FEFEFE"/>
    <path d="M294.792 21.1509C295.102 22.8579 295.474 33.1657 294.881 34.422L294.443 34.3467C293.838 33.5651 294.141 22.3402 294.792 21.1509Z" fill="#FEFEFE" fill-opacity="0.0156863"/>
    <path d="M214.327 15.0531C219.515 14.955 225.919 13.8947 229.44 17.5526C233.413 20.7948 232.751 24.552 233.148 28.6181C233.882 36.1364 228.091 34.9137 232.595 41.6231C233.297 42.6687 233.245 59.0072 232.523 59.7823C231.739 60.3202 231.08 60.2517 230.187 60.308C226.184 60.5604 227.128 57.6574 227.1 54.8341C227.073 52.0905 227.141 49.3252 227.164 46.582L227.056 43.4728C226.094 42.3837 225.524 41.6698 224.322 40.8251C222.115 40.6943 220.155 40.7126 217.951 40.8005L217.988 53.052C217.992 54.6091 218.318 58.7864 217.416 59.8594C216.23 60.6361 213.208 60.5466 212.169 59.3855C211.929 57.8313 212.088 46.7295 212.087 44.5477L212.082 27.311C212.082 24.6405 212.081 21.9702 212.095 19.2999C212.104 17.3813 212.172 15.6764 214.327 15.0531ZM217.998 34.6516C220.912 34.4442 223.563 34.9095 225.816 33.2121C227.759 29.951 227.237 27.7563 227.087 23.9641C223.769 20.4839 222.785 20.9788 218.098 21.2381C217.812 22.9813 217.919 32.3674 217.998 34.6516Z" fill="#FEFEFE"/>
    <path d="M402.874 14.5947C404.988 14.3246 406.889 14.8735 408.947 15.3449C410.091 16.3898 412.214 18.0321 412.941 19.2763C415.104 22.9854 414.863 27.517 414.827 31.5523L414.797 41.6377C414.79 46.485 414.959 51.3131 414.863 56.1525C414.773 60.7209 412.519 60.108 408.874 59.4349C408.443 55.2792 408.736 44.7928 408.696 40.0795L405.645 40.0868L399.769 40.0659C398.831 44.1305 400.261 56.2001 399.066 58.3976C398.677 59.1108 398.046 59.5798 397.273 59.8083C396.424 60.0591 395.311 60.0558 394.533 59.5781C394.013 59.258 393.811 58.8858 393.689 58.3059C393.059 55.3472 393.525 48.9785 393.523 45.6082L393.52 32.2833C393.523 24.0412 392.644 16.7121 402.874 14.5947ZM399.373 33.9851C401.229 34.0193 403.085 34.0294 404.941 34.0153C406.13 34.0027 407.527 34.0202 408.696 33.9691C408.776 29.8779 409.263 25.9821 407.674 22.2471C405.874 21.0281 405.07 20.4261 402.858 20.6805C398.426 23.112 399.555 26.0923 399.401 30.566C399.363 31.6955 399.384 32.854 399.373 33.9851Z" fill="#FEFEFE"/>
    <path d="M16.2897 65.8598C18.37 65.7436 19.2912 66.4746 21.2131 67.4074C20.3432 68.4712 19.1311 69.2597 18.0124 70.0657C19.5695 71.288 21.273 71.988 23.0578 72.8278C22.5722 71.0871 22.4638 69.6773 22.2726 67.883C22.6738 68.3027 24.1209 69.8201 24.3546 70.2237C26.8233 74.4886 25.8999 74.8821 30.492 76.7105C30.0741 75.083 29.3105 73.7538 29.4178 72.0527L29.6684 71.8955C32.6967 73.8921 31.9824 76.7456 34.2778 78.8695C34.6556 79.2192 36.9879 80.3327 37.583 80.6208C37.4311 79.6659 36.9138 77.6909 37.6699 77.0264C38.6402 77.3991 40.3828 81.3469 41.3459 82.7323C42.0973 83.1227 43.7541 84.1305 44.4804 83.9557C44.7933 82.6523 43.3167 80.9517 43.9202 79.838L44.427 79.8614C46.0798 80.8809 47.1846 84.0937 47.7762 85.9809C48.626 86.6074 50.2828 87.6654 51.278 87.9143C51.9734 87.4507 51.0945 84.994 51.7167 83.8685L52.054 83.9428C53.287 85.1655 54.0898 88.0837 54.9565 89.8765C55.8056 90.4327 56.9299 91.2916 57.8972 91.4222C59.5906 90.8784 57.6813 88.5677 58.3781 87.439C61.3549 88.0861 60.3884 92.6318 62.6215 93.772C63.3518 94.1449 64.684 93.3293 65.4181 92.9489C65.0796 91.549 64.2127 89.4675 65.1099 88.2478C66.4104 88.5253 67.14 91.492 67.849 91.8277C68.7183 91.7805 69.8168 91.0941 70.6186 90.6656C70.2556 89.4178 69.4542 87.5262 70.6699 86.7305C72.0663 86.8985 71.5545 88.6545 72.8538 89.3252C73.4412 89.4415 74.142 89.2995 74.6627 89.0395C76.7754 87.9846 74.8702 86.5666 75.8063 84.3253L76.432 84.1709C77.5378 84.8862 77.9578 85.9523 78.3391 87.1305L81.5745 85.6132C81.2438 84.2491 80.6032 83.1084 81.5782 81.9863L82.1133 82.129C82.8518 82.7278 83.0796 83.7966 83.3695 84.7155C84.0499 84.5088 86.5334 83.8887 86.4987 82.9568C86.4584 81.8742 86.0334 79.9048 87.2585 79.3186C88.3908 79.8213 88.8438 80.9754 89.2146 82.0652C89.8763 81.8674 90.5349 81.6598 91.1902 81.4425C93.8726 80.5247 90.833 76.8183 92.8163 76.1698L93.2508 76.4105C93.6185 77.1912 94.3097 78.9942 94.9723 79.3425C98.3391 79.8705 97.0066 76.5677 97.3566 75.1521L97.6381 75.0977C98.5896 75.465 99.687 76.6493 100.462 77.3873L103.255 75.6839C103.133 75.0087 102.274 71.6494 103.016 71.2704C103.741 70.8991 106.688 69.0321 107.322 69.1366C109.363 69.473 116.288 72.0101 116.361 74.262C115.662 75.5213 109.331 77.9412 107.669 78.6998L85.5244 88.7067L72.5166 94.6622C69.6403 96.0021 66.7978 97.474 63.7847 98.4865C62.7694 98.895 61.4491 98.3726 60.4542 97.8947C54.7252 95.1427 49.0324 91.7869 43.4377 88.7925L7.63046 69.5135C10.4961 68.3405 13.3849 67.0505 16.2897 65.8598Z" fill="#FEFEFE"/>
    <path d="M422.991 14.5488C432.802 13.973 443.723 13.3549 443.081 27.1411C442.91 30.8569 443.33 33.6837 440.299 36.6942C436.673 40.298 432.626 40.1011 427.964 40.0622C428.018 41.6855 427.973 43.534 427.976 45.1758C427.992 47.6871 428.302 57.3614 427.596 59.1752C426.804 60.0572 423.251 59.9655 422.37 59.1122C422.126 58.8762 422.093 58.0573 422.095 57.7059C422.152 43.5949 421.922 29.4469 422.224 15.3491C422.531 15.027 422.787 14.7602 422.991 14.5488ZM427.985 33.9518C430.751 33.9926 433.179 34.3823 435.487 32.9548C436.05 32.0965 436.596 31.2265 437.121 30.3448C437.173 28.113 437.163 25.8802 437.095 23.6487C434.374 19.9834 433.273 20.4723 428.948 20.4653C427.699 20.7636 427.959 22.2433 427.952 23.4135C427.936 26.9243 427.969 30.4404 427.985 33.9518Z" fill="#FEFEFE"/>
    <path d="M8.2709 81.818C11.7726 80.5514 18.3367 75.4798 21.931 79.8607C22.1303 80.1035 22.0094 80.292 21.9377 80.5894C21.4545 81.0909 19.255 81.8243 18.0607 82.4965C21.398 84.8735 20.5441 82.5516 23.1771 83.3794C23.7391 84.1378 23.5418 84.6293 23.7937 85.4866C24.0722 86.4345 31.793 89.6264 33.1976 90.4357C34.5164 91.1958 35.6194 92.3187 36.9656 93.0138C37.7974 93.4432 38.4096 92.7424 39.2201 92.4855C41.0759 92.772 40.6416 94.9866 41.8596 95.5699C42.7734 95.839 48.5187 99.1943 49.1217 99.173C53.8866 99.0047 51.4903 100.075 54.3005 102.088C56.5409 103.693 60.292 104.941 62.8376 106.635C64.5117 105.85 66.2981 105.117 68.0048 104.389C68.2962 103.628 68.913 102.104 69.7877 102.128C73.1135 102.222 74.8694 101.443 77.8591 99.923C84.3248 96.6356 90.9066 93.6837 97.6582 91.0106C98.7084 90.5948 99.5002 88.6509 100.434 88.1018C101.013 87.7952 102.872 88.3739 103.548 88.2169C107.113 87.3502 104.653 84.7359 104.762 83.4422C105.238 77.827 116.18 85.5837 117.381 86.5945C114.885 87.9968 110.704 89.763 107.985 90.9968L95.1194 96.9002C91.916 98.2833 88.222 99.8787 85.1116 101.417C83.6848 101.566 81.6387 102.891 80.3004 103.53C78 104.628 64.2813 111.291 62.9466 111.351C61.8347 111.401 16.2106 86.8931 11.44 84.0921C10.2933 83.4187 9.22458 82.7543 8.2709 81.818Z" fill="#FEFEFE"/>
    <path d="M165.44 14.8753C165.676 14.9201 165.915 14.9691 166.144 15.0418C166.432 15.1333 166.646 15.3396 166.852 15.5529C167.963 16.7041 166.561 41.347 167.56 45.84C168.168 48.5763 170.322 51.2984 171.62 53.7956C172.983 51.5051 175.259 48.7699 175.9 46.2035C177.034 41.6634 175.2 17.3085 176.639 15.7992C177.307 15.0986 178.445 14.9139 179.368 14.8851C180.104 14.8621 181.226 14.878 181.785 15.4274C182.796 16.42 182.354 23.5929 182.335 25.2539C182.253 41.6925 184.972 45.9691 175 60.2918C172.993 60.4071 169.789 60.9595 168.153 59.5924C166.247 57.9998 161.428 48.5843 161.214 46.0102C160.896 42.2051 160.714 16.5728 161.688 15.5144C162.257 14.8949 164.606 14.937 165.44 14.8753Z" fill="#FEFEFE"/>
    <path d="M261.066 15.0231C262.725 15.0433 264.237 14.988 265.894 14.9157C266.456 18.1656 266.276 22.8085 266.269 26.2078L266.231 42.6452C266.227 45.1713 266.107 49.2652 266.58 51.6302C269.384 54.9192 272.224 54.6366 275.072 51.7561C275.578 49.1714 275.52 45.3837 275.529 42.6963C275.55 37.5443 275.543 32.3925 275.505 27.2407C275.489 24.9457 275.046 16.6679 276.427 15.236C277.641 14.8678 279.586 14.9685 280.905 14.9712C281.684 17.2381 281.487 19.3845 281.447 21.7646C281.423 26.6182 282.045 50.1157 280.868 53.1872C279.898 55.7196 277.533 58.3179 275.041 59.3934C272.43 60.5201 269.623 60.507 266.998 59.442C264.368 58.3755 262.455 56.535 261.356 53.899C260.735 52.4053 260.414 50.8005 260.28 49.1923C259.882 44.3986 260.309 39.3584 260.309 34.5366C260.309 29.4075 259.91 24.1162 260.252 19.005C260.346 17.6079 260.522 16.3299 261.066 15.0231Z" fill="#FEFEFE"/>
    <path d="M458.091 14.3703C464.22 13.6094 469.369 20.5634 468.963 26.2085C468.757 29.0662 469.179 29.682 465.884 30.0094C462.166 30.3787 462.881 27.333 462.551 24.8105C462.253 20.488 457.348 19.077 454.65 22.3868C452.381 25.3673 454.784 26.9437 456.159 29.352C459.731 35.6093 469.493 43.1599 468.708 50.7077C468.218 55.4145 463.542 59.2137 459.07 59.7422C454.936 59.8338 453.57 58.8295 450.42 56.112C448.523 54.4779 445.805 46.4072 448.47 45.0602C453.888 42.3227 454.162 45.9792 453.75 50.2256C455.578 53.9198 459.019 54.5407 461.986 51.6237C462.272 50.7227 462.537 49.7288 462.799 48.8133C459.614 41.9297 449.541 33.3888 447.799 25.8877C447.272 23.6109 448.591 20.2518 450.082 18.415C452.564 15.3532 454.477 14.8854 458.091 14.3703Z" fill="#FEFEFE"/>
    <path d="M191.82 15.0605C194.102 14.9547 203.394 14.6135 204.764 15.582C205.349 16.6602 205.49 19.586 204.527 20.3734C202.726 21.8454 198.306 21.0702 195.871 21.2124C195.964 23.8186 195.959 32.1342 195.654 34.4592C197.464 34.4651 203.422 34.4477 204.822 34.9863C205.343 35.9433 205.391 39.2686 204.435 40.0162C202.677 41.3918 198.135 40.7531 195.868 40.763C195.815 45.0377 195.831 49.3132 195.918 53.5875L195.838 53.7396C196.389 55.0296 208.706 51.2009 204.75 59.7579C203.685 60.6 191.825 60.8831 190.34 59.1272C190.073 57.9898 189.948 56.8563 189.906 55.6905C189.748 51.2934 189.521 18.3602 190.229 16.3948C190.506 15.6275 191.133 15.3862 191.82 15.0605Z" fill="#FEFEFE"/>
    <path d="M318.982 15.0924C320.32 14.982 331.371 14.627 331.73 15.5079C334.748 22.8886 327.185 21.0513 322.91 21.1963C322.978 24.9652 323.13 30.8348 322.765 34.4416C325.786 34.4688 328.927 34.609 331.952 34.7194C332.63 38.9159 332.791 41.1244 327.598 40.834C326.116 40.7513 324.434 40.7313 322.943 40.7276L322.959 53.4961L322.95 53.6777C323.531 54.7891 329.536 53.3677 331.324 54.2611C332.566 55.5574 332.747 58.1489 331.891 59.6925C330.42 60.8109 319.338 60.8367 317.452 59.1176C315.591 53.7891 318.084 28.6952 317.041 21.9159C316.746 19.9977 316.849 15.9655 318.982 15.0924Z" fill="#FEFEFE"/>
    <path d="M167.42 78.2995C173.783 77.3869 179.693 81.7699 180.667 88.1234C181.641 94.477 177.316 100.429 170.972 101.465C164.541 102.515 158.488 98.1164 157.501 91.6753C156.513 85.2342 160.97 79.2246 167.42 78.2995ZM170.679 99.0204C173.123 98.156 175.159 97.1756 176.346 94.7065C177.568 92.1673 177.561 88.6732 176.614 86.0512C175.892 84.0513 174.536 82.4243 172.588 81.529C170.944 80.7731 169.379 80.7628 167.604 80.88C165.183 81.6159 163.258 82.4595 161.999 84.8189C160.665 87.319 160.503 90.6959 161.33 93.3827C161.94 95.4117 163.345 97.1077 165.225 98.0857C166.978 99.0054 168.737 99.1273 170.679 99.0204Z" fill="#FEFEFE"/>
    <path d="M342.401 78.3689C348.783 77.2952 354.827 81.5986 355.898 87.9799C356.972 94.3615 352.669 100.404 346.287 101.476C339.905 102.548 333.865 98.2448 332.791 91.8644C331.72 85.4843 336.021 79.4423 342.401 78.3689ZM344.904 99.0183C347.36 98.583 349.498 97.8839 350.988 95.723C352.584 93.4102 352.73 90.0136 352.219 87.3075C351.818 85.1817 350.655 83.3208 348.851 82.1109C347.334 81.0935 345.595 80.6733 343.786 80.6524C341.14 81.338 339.014 82.0355 337.535 84.5529C336.115 86.9667 335.808 90.2885 336.518 92.9733C337.064 95.0466 338.283 96.7927 340.153 97.872C341.691 98.7588 343.167 98.9796 344.904 99.0183Z" fill="#FEFEFE"/>
    <path d="M251.149 78.6405C252.778 78.5529 255.567 78.5665 257.135 78.8796C259.798 79.4027 262.137 80.9794 263.62 83.2519C267.785 89.6098 265.315 96.2803 259.315 100.192C255.98 101.721 250.045 101.25 246.089 101.339C246.059 93.8018 246.066 86.2648 246.115 78.728L251.149 78.6405ZM248.906 98.7309C251.623 98.4961 255.851 99.2084 258.145 97.6045C260.255 96.3792 261.391 95.0557 262.034 92.6198C262.683 90.1561 262.441 87.0148 261.117 84.8013C260.105 83.1073 258.483 82.0739 256.591 81.6026C254.641 81.1169 252.544 81.2081 250.545 81.1948C250.013 81.2402 249.244 81.1976 248.857 81.6019C248.536 84.4336 248.883 87.4423 248.88 90.2965C248.878 92.9646 248.449 96.1245 248.906 98.7309Z" fill="#FEFEFE"/>
    <path d="M237.71 15.1048C240.241 14.9279 251.754 14.5899 253.493 15.5991C253.969 16.2082 254.03 17.4807 254.041 18.2536C254.112 22.4834 250.191 20.2191 248.714 21.7164C248.034 22.9534 248.377 53.2814 248.557 56.4258C248.564 56.5432 248.566 56.6606 248.569 56.778C248.67 62.5903 242.25 60.6361 242.332 57.9412C242.693 45.8707 241.87 33.3002 242.311 21.287C240.708 21.0679 238.549 21.4346 237.239 20.5961C236.498 19.4213 236.522 16.0256 237.71 15.1048Z" fill="#FEFEFE"/>
    <path d="M282.232 78.6185C283.085 78.6356 283.781 78.908 284.086 79.781C285.366 83.4328 287.02 87.0129 288.335 90.6356C289.547 93.983 291.752 97.7841 292.195 101.259L289.289 101.236C288.48 99.5698 287.897 98.0939 287.222 96.3654C285.328 96.2977 283.282 96.3281 281.374 96.3213L276.164 96.3436C275.245 98.002 274.212 101.903 271.873 101.56C271.369 101.217 271.324 101.109 271.062 100.55C271.32 97.2248 277.601 85.7205 278.43 81.4573C278.885 79.1058 280.045 78.8212 282.232 78.6185ZM277.034 93.7282C278.742 93.697 280.451 93.7071 282.157 93.7577C283.472 93.6952 284.829 93.6973 286.134 93.5149C285.122 91.2272 283.017 83.4848 281.384 82.1895C280.005 86.0684 278.353 89.8205 277.034 93.7282Z" fill="#FEFEFE"/>
    <path d="M218.314 78.5937C218.845 78.5773 219.428 78.5325 219.954 78.6094C221.565 78.8449 231.645 93.7669 233.375 96.0555C232.986 91.0338 233.169 85.0172 233.367 79.9929C233.399 79.1782 234.555 78.2147 235.638 78.6907C236.937 80.2959 236.02 97.072 236.245 100.107C236.332 101.266 235.903 101.201 234.996 101.467C234.57 101.396 233.714 101.256 233.432 100.967C231.685 99.1795 230.002 96.6809 228.554 94.6676C225.825 90.8742 223.18 87.0846 220.343 83.3848C220.48 88.215 220.189 93.1137 220.379 97.9528C220.439 99.4739 220.583 100.752 219.056 101.465C218.361 101.418 218.246 101.366 217.721 100.909C216.982 99.8271 217.091 81.6839 217.666 79.2286C217.666 79.2286 218.224 78.682 218.314 78.5937Z" fill="#FEFEFE"/>
    <path d="M366.546 78.5841C366.846 78.5595 367.406 78.7092 367.596 78.9363C372.129 84.4003 376.015 90.6077 380.452 96.1191C379.805 90.7732 380.454 85.3071 380.407 79.9245C380.402 79.3898 380.801 79.1409 381.162 78.8688C381.874 78.7535 382.153 78.6652 382.826 78.9705C383.362 80.1759 383.447 100.193 382.927 101.057C382.376 101.52 381.71 101.417 380.974 101.41C380.93 101.388 380.885 101.365 380.843 101.34C380.82 101.325 380.794 101.31 380.77 101.296C378.9 100.215 369.272 86.0203 367.296 83.3557C367.233 86.8739 367.205 90.3926 367.214 93.9112C367.23 95.9822 368.086 101.164 365.367 101.653C363.11 100.472 364.659 84.1988 364.216 81.1221C364.16 80.7183 364.291 79.5879 364.413 79.1679C365.002 78.637 365.745 78.6612 366.546 78.5841Z" fill="#FEFEFE"/>
    <path d="M206.971 78.603L207.569 78.8475C208.377 80.0219 207.6 87.2644 207.907 89.6046C209.29 100.183 199.756 105.173 191.536 99.3961C188.118 96.9933 189.027 87.5046 189.085 83.0273L189.096 78.7313L191.265 78.7769C193.998 80.4246 188.866 97.1201 195.82 98.632C209.647 101.639 203.275 84.9352 205.225 79.0233C205.748 78.5918 206.189 78.6872 206.971 78.603Z" fill="#FEFEFE"/>
    <path d="M136.292 78.6272C138.827 78.8827 149.187 78.0089 150.482 79.4902C150.562 80.0726 150.474 80.2055 150.218 80.7464C149.359 81.5456 140.64 81.1784 138.578 81.3602C138.265 83.509 138.321 85.8991 138.316 88.0866C141.823 88.4449 145.807 88.1824 149.309 88.6816C149.854 88.7595 149.996 89.3273 150.23 89.827L149.623 90.5447C148.229 91.2398 140.724 90.9476 138.553 90.9595C138.383 92.7628 138.444 100.271 138.171 100.965C137.063 101.64 136.171 101.471 135.384 100.446C134.802 95.7206 135.441 84.8269 135.308 79.4714C135.299 79.1023 135.895 78.8651 136.292 78.6272Z" fill="#FEFEFE"/>
    <path d="M299.74 78.6396C301.896 78.5796 311.705 78.2848 312.916 79.2005C313.036 80.1558 313.097 79.8012 312.72 80.6524C311.468 81.66 308.039 81.2883 306.105 81.3441L306.115 98.7305C306.12 100.457 305.66 102.464 303.445 101.046C302.836 99.3354 303.15 84.1395 303.22 81.2496C302.018 81.2517 296.866 81.5086 296.22 80.8099C296.13 79.7569 295.969 79.8152 296.421 79.0195C297.185 78.5566 298.784 78.6546 299.74 78.6396Z" fill="#FEFEFE"/>
    <path d="M321.825 78.6628C322.549 78.6586 323.086 78.6016 323.754 78.8953C324.295 80.5945 324.213 99.0359 323.805 101.448C323.023 101.361 322.624 101.275 321.86 101.079C321.605 100.832 321.398 100.745 321.405 100.369C321.462 97.3697 320.784 79.8 321.825 78.6628Z" fill="#FEFEFE"/>
    <path d="M294.033 59.4966C295.024 56.5784 293.257 43.8255 294.713 40.788C295.137 42.4765 295.465 58.4695 294.942 59.7534C294.459 59.8758 294.595 59.8308 294.033 59.4966Z" fill="#FEFEFE" fill-opacity="0.0196078"/>
    <path d="M189.026 19.3359C189.494 19.8879 189.479 19.838 189.469 20.6136C189.295 33.142 189.462 45.7638 189.59 58.2663L189.468 58.1852C188.8 54.7205 189.092 46.4116 189.11 42.4744L189.026 19.3359Z" fill="#FEFEFE" fill-opacity="0.054902"/>
    <path d="M266.372 87.2032L266.604 87.2937C266.759 89.3466 266.566 91.3561 266.691 93.3856C265.762 92.1858 266.196 88.7203 266.372 87.2032Z" fill="#342E3A" fill-opacity="0.0352941"/>
    <path d="M57.2227 97.9059L57.4636 98.1213C57.8002 98.9538 57.6776 99.9916 57.6577 100.878L57.3134 100.581C57.0026 99.772 57.168 98.7612 57.2227 97.9059Z" fill="#4D4D4F" fill-opacity="0.211765"/>
    <path d="M74.5427 96.2271C74.955 96.9647 74.7612 97.7761 74.6428 98.5645C74.6065 98.517 74.5903 98.4977 74.557 98.4417C74.1262 97.7121 74.336 96.9811 74.5427 96.2271Z" fill="black" fill-opacity="0.192157"/>
</svg>
